<?xml version="1.0" encoding="utf-8"?>
<!-- Generator: Adobe Illustrator 16.0.0, SVG Export Plug-In . SVG Version: 6.00 Build 0)  -->
<!DOCTYPE svg PUBLIC "-//W3C//DTD SVG 1.1//EN" "http://www.w3.org/Graphics/SVG/1.1/DTD/svg11.dtd">
<svg version="1.1" id="Layer_1" xmlns="http://www.w3.org/2000/svg" xmlns:xlink="http://www.w3.org/1999/xlink" x="0px" y="0px"
	 width="100px" height="60.167px" viewBox="0 20.167 100 60.167" enable-background="new 0 20.167 100 60.167" xml:space="preserve"
	>
<g>
	<path fill="#F15A22" d="M8.196,70.592l-1.851,4.467l-0.41,1.256H5.909L5.5,75.059l-1.824-4.467H1.23l3.701,8.327h1.996l3.713-8.327
		H8.196L8.196,70.592z M14.064,70.592h-2.207v8.327h2.207V70.592L14.064,70.592z M14.157,68.82
		c-0.002-0.231-0.053-0.438-0.152-0.622c-0.102-0.183-0.24-0.325-0.419-0.431c-0.176-0.106-0.383-0.162-0.619-0.164
		c-0.24,0.002-0.447,0.058-0.626,0.164c-0.178,0.104-0.314,0.248-0.414,0.431c-0.1,0.185-0.147,0.391-0.15,0.622
		c0.003,0.23,0.051,0.438,0.15,0.621c0.099,0.183,0.236,0.324,0.414,0.433c0.179,0.104,0.386,0.16,0.626,0.162
		c0.236-0.002,0.443-0.058,0.619-0.162c0.179-0.106,0.317-0.25,0.419-0.433C14.104,69.259,14.155,69.052,14.157,68.82L14.157,68.82z
		 M21.387,70.499h-0.489c-0.562,0.002-1.047,0.11-1.452,0.319c-0.406,0.209-0.729,0.504-0.967,0.883h-0.026v-1.109h-2.208v8.327
		h2.208v-4.124c-0.002-0.777,0.18-1.355,0.55-1.729c0.373-0.375,0.945-0.562,1.723-0.559h0.661V70.499L21.387,70.499z
		 M28.039,76.408c-0.209,0.229-0.41,0.398-0.606,0.504c-0.194,0.105-0.403,0.156-0.623,0.156c-0.166,0-0.309-0.041-0.434-0.118
		c-0.123-0.077-0.221-0.194-0.291-0.349c-0.071-0.156-0.107-0.349-0.107-0.576v-3.555v-0.199h2.458V70.5h-2.458v-0.198v-2.169
		l-2.208,1.178v0.991V70.5h-1.11v1.771h1.11v0.199v3.555c0,0.972,0.234,1.705,0.703,2.195c0.469,0.492,1.183,0.738,2.139,0.738
		c0.346,0,0.673-0.046,0.978-0.137c0.307-0.092,0.604-0.231,0.89-0.42c0.284-0.185,0.57-0.418,0.855-0.699L28.039,76.408
		L28.039,76.408z M38.679,70.5h-2.207v4.864c0,0.364-0.086,0.674-0.254,0.925c-0.167,0.251-0.398,0.443-0.7,0.572
		c-0.3,0.129-0.653,0.195-1.056,0.193c-0.447,0-0.799-0.064-1.058-0.191c-0.259-0.127-0.446-0.307-0.555-0.547
		c-0.108-0.236-0.158-0.522-0.158-0.86V70.5h-2.208v5.075c0,0.514,0.067,0.979,0.21,1.393c0.143,0.415,0.365,0.772,0.663,1.068
		s0.679,0.524,1.139,0.683c0.459,0.159,1.006,0.239,1.636,0.24c0.306,0,0.602-0.033,0.885-0.1c0.285-0.065,0.547-0.16,0.791-0.286
		c0.243-0.124,0.454-0.279,0.637-0.46h0.027v0.727h2.207L38.679,70.5L38.679,70.5z M46.543,75.43v0.795
		c0,0.164-0.06,0.303-0.171,0.414c-0.111,0.107-0.256,0.198-0.434,0.266c-0.179,0.066-0.37,0.117-0.575,0.15
		c-0.207,0.032-0.405,0.055-0.597,0.064c-0.191,0.012-0.356,0.016-0.495,0.016c-0.216,0-0.423-0.017-0.622-0.051
		c-0.196-0.033-0.372-0.086-0.526-0.158c-0.154-0.07-0.278-0.16-0.368-0.271c-0.089-0.107-0.135-0.239-0.137-0.391
		c-0.002-0.212,0.088-0.392,0.276-0.537c0.186-0.146,0.487-0.262,0.901-0.35c0.207-0.044,0.421-0.08,0.646-0.104
		c0.222-0.022,0.443-0.032,0.663-0.041c0.222-0.01,0.425-0.022,0.61-0.024c0.185-0.003,0.364-0.003,0.54-0.003
		c0.016,0,0.044,0,0.09,0c0.044,0,0.095,0.002,0.152,0.003c0.055,0,0,0.003,0.048,0.004s-0.022,0.004,0,0.007L46.543,75.43
		L46.543,75.43z M48.75,73.658c0-0.57-0.101-1.064-0.293-1.477c-0.193-0.414-0.465-0.755-0.813-1.02
		c-0.35-0.268-0.763-0.462-1.235-0.592c-0.474-0.127-0.995-0.189-1.558-0.19c-0.707-0.001-1.381,0.091-2.02,0.272
		c-0.641,0.185-1.245,0.477-1.813,0.877l1.361,1.375c0.379-0.25,0.778-0.43,1.194-0.539c0.414-0.11,0.833-0.162,1.251-0.161
		c0.333,0,0.619,0.039,0.863,0.118c0.245,0.08,0.438,0.197,0.578,0.354c0.139,0.155,0.26,0.354,0.277,0.586v0.211
		c-0.022-0.002,0.07-0.006,0-0.006c-0.07-0.001-0.104-0.005-0.189-0.006c-0.085,0-0.163-0.002-0.233-0.002c-0.068,0-0.112,0-0.132,0
		c-0.304,0-0.628,0.008-0.974,0.023c-0.346,0.015-0.697,0.041-1.056,0.084c-0.356,0.043-0.707,0.106-1.049,0.189
		c-0.343,0.083-0.663,0.192-0.962,0.326c-0.299,0.134-0.564,0.301-0.791,0.497c-0.228,0.198-0.407,0.437-0.535,0.706
		c-0.129,0.273-0.199,0.59-0.198,0.949c0.001,0.427,0.081,0.795,0.234,1.104c0.153,0.313,0.361,0.573,0.621,0.782
		c0.26,0.209,0.553,0.378,0.879,0.502c0.325,0.125,0.663,0.214,1.011,0.268c0.35,0.053,0.692,0.08,1.022,0.078
		c0.283,0,0.564-0.021,0.841-0.064c0.277-0.043,0.542-0.113,0.793-0.203c0.253-0.09,0.482-0.202,0.691-0.34h0.026v0.477h2.208
		L48.75,73.658L48.75,73.658z M53.086,67.725h-2.207v11.104h2.207V67.725L53.086,67.725z M63.814,71.57H61.37l0.014-1.178
		c-0.004-0.279,0.087-0.498,0.275-0.651c0.187-0.155,0.485-0.23,0.899-0.233c0.219,0,0.433,0.02,0.645,0.059
		c0.209,0.039,0.414,0.094,0.611,0.166v-1.771c-0.197-0.071-0.428-0.128-0.688-0.168c-0.26-0.037-0.557-0.058-0.886-0.058
		c-0.462,0-0.88,0.063-1.257,0.187c-0.377,0.12-0.699,0.297-0.973,0.528c-0.271,0.23-0.48,0.509-0.629,0.837
		c-0.146,0.327-0.22,0.696-0.223,1.106l0.004,1.178h-1.193v1.759h1.193v0.196v5.393h2.204v-5.378V73.33h2.444v-1.76H63.814z
		 M71.165,74.755c0.001,0.479-0.076,0.897-0.231,1.259c-0.156,0.357-0.398,0.641-0.728,0.842c-0.326,0.199-0.747,0.304-1.263,0.306
		c-0.512-0.002-0.93-0.104-1.26-0.306c-0.326-0.201-0.568-0.483-0.727-0.842c-0.158-0.359-0.234-0.779-0.234-1.259
		c-0.002-0.481,0.074-0.903,0.229-1.26s0.395-0.636,0.723-0.832c0.328-0.197,0.751-0.298,1.27-0.302
		c0.516,0.004,0.937,0.104,1.263,0.306c0.328,0.198,0.569,0.476,0.728,0.832C71.089,73.857,71.166,74.277,71.165,74.755
		L71.165,74.755z M73.371,74.755c0-0.612-0.092-1.177-0.275-1.696c-0.185-0.521-0.459-0.976-0.83-1.363
		c-0.367-0.387-0.83-0.688-1.386-0.906c-0.558-0.217-1.204-0.324-1.95-0.328c-0.734,0.004-1.381,0.114-1.934,0.33
		c-0.551,0.218-1.012,0.521-1.379,0.909c-0.367,0.39-0.645,0.844-0.827,1.362c-0.183,0.521-0.274,1.084-0.274,1.692
		s0.092,1.172,0.274,1.69c0.187,0.521,0.461,0.975,0.829,1.365c0.369,0.388,0.831,0.69,1.384,0.91
		c0.554,0.215,1.199,0.325,1.94,0.329c0.732-0.004,1.377-0.114,1.93-0.333c0.554-0.218,1.016-0.521,1.386-0.914
		c0.369-0.39,0.648-0.844,0.832-1.363C73.279,75.923,73.371,75.361,73.371,74.755L73.371,74.755z M80.271,70.499h-0.49
		c-0.561,0.002-1.047,0.11-1.451,0.319c-0.405,0.209-0.729,0.504-0.969,0.883h-0.025v-1.109h-2.207v8.327h2.207v-4.124
		c-0.002-0.777,0.182-1.355,0.553-1.729c0.37-0.375,0.944-0.562,1.723-0.559h0.66V70.499L80.271,70.499z M87.686,76.262
		c-0.205,0.203-0.414,0.371-0.625,0.504s-0.433,0.232-0.666,0.299c-0.232,0.063-0.485,0.097-0.758,0.097
		c-0.398-0.002-0.742-0.062-1.027-0.179c-0.287-0.115-0.521-0.279-0.7-0.49c-0.183-0.209-0.318-0.459-0.403-0.74
		c-0.087-0.284-0.128-0.595-0.128-0.93c0-0.354,0.049-0.678,0.146-0.977c0.099-0.298,0.24-0.558,0.434-0.779
		c0.191-0.221,0.432-0.394,0.715-0.517c0.287-0.124,0.616-0.185,0.993-0.188c0.271,0,0.522,0.031,0.751,0.094
		c0.229,0.064,0.441,0.159,0.645,0.286c0.198,0.126,0.391,0.286,0.574,0.479l1.454-1.453c-0.407-0.414-0.896-0.733-1.46-0.963
		c-0.566-0.228-1.227-0.344-1.977-0.346c-0.575,0.002-1.098,0.073-1.568,0.221c-0.471,0.146-0.886,0.353-1.247,0.615
		c-0.362,0.268-0.667,0.58-0.914,0.941c-0.246,0.363-0.435,0.76-0.56,1.193c-0.129,0.434-0.191,0.896-0.191,1.377
		c0,0.596,0.09,1.146,0.271,1.66c0.183,0.514,0.457,0.961,0.824,1.35c0.368,0.386,0.83,0.688,1.39,0.902
		c0.56,0.217,1.215,0.326,1.968,0.33c0.689-0.002,1.334-0.119,1.927-0.354c0.593-0.23,1.119-0.563,1.577-0.995L87.686,76.262
		L87.686,76.262z M92.484,73.844l0.039-0.213c0.113-0.283,0.264-0.525,0.449-0.729c0.188-0.203,0.414-0.359,0.682-0.467
		c0.27-0.11,0.582-0.164,0.943-0.166c0.528,0.002,0.963,0.119,1.301,0.353s0.584,0.569,0.735,1.009l0.062,0.213H92.484
		L92.484,73.844z M99,74.82c0-0.488-0.059-0.951-0.174-1.387c-0.114-0.438-0.289-0.836-0.521-1.199
		c-0.234-0.36-0.527-0.678-0.877-0.94c-0.354-0.265-0.763-0.469-1.234-0.614c-0.471-0.146-1.002-0.218-1.594-0.22
		c-0.707,0.002-1.338,0.11-1.892,0.33c-0.55,0.216-1.017,0.521-1.396,0.914c-0.383,0.392-0.672,0.853-0.871,1.381
		c-0.196,0.529-0.295,1.108-0.297,1.735c0,0.596,0.094,1.147,0.28,1.66c0.188,0.51,0.472,0.957,0.851,1.343
		c0.379,0.384,0.854,0.684,1.429,0.899c0.573,0.215,1.244,0.323,2.013,0.327c0.693,0,1.324-0.104,1.902-0.313
		c0.574-0.209,1.107-0.526,1.602-0.957l-1.336-1.348c-0.328,0.271-0.667,0.469-1.02,0.6c-0.352,0.13-0.733,0.193-1.148,0.193
		c-0.378-0.002-0.715-0.06-1.011-0.176c-0.292-0.115-0.542-0.275-0.744-0.484c-0.203-0.209-0.358-0.457-0.465-0.74l-0.063-0.211
		h6.514c0.021-0.137,0.033-0.275,0.041-0.418C98.995,75.055,99,74.93,99,74.82L99,74.82z"/>
	<path fill="#F15A22" d="M20.441,21.556c8.821,12.555,31.698,19.75,44.958,20.515l14.271-20.567
		C62.244,29.683,36.804,28.005,20.441,21.556L20.441,21.556z"/>
	<path fill="#F15A22" d="M52.882,61.111l10.134-14.815c-15.063-1.339-30.57-10.775-38.268-18.281
		C31.283,36.54,40.005,48.911,52.882,61.111L52.882,61.111z"/>
</g>
</svg>
